# xmcd
#
# Track frame offsets: 
#        150
#        6482
#        25630
#        32772
#        46122
#        60702
#        74212
#        80475
#        98577
#        110979
#        125195
#        132405
#        139920
#        157234
#        169797
#        178565
#        188287
#        195987
#        216109
#        236807
#
# Disc length: 3218 seconds
#
# Revision: 0
# Processed by: cddbd v1.5.1PL0 Copyright (c) Steve Scherf et al.
# Submitted via: ExactAudioCopy v0.95a5
#
DISCID=240c9014
DTITLE=Zane Williams - Train of Thought
DYEAR=1900
DGENRE=Country
TTITLE0=Instrumental
TTITLE1=Time is a Flooded River
TTITLE2=Instrumental
TTITLE3=The Jessi Song
TTITLE4=Carry Me Away
TTITLE5=The Forgetful Song
TTITLE6=Instrumental
TTITLE7=The One For You
TTITLE8=Real World
TTITLE9=I Wish I Hadn't Seen
TTITLE10=Instrumental
TTITLE11=Solitary Morning
TTITLE12=Fall Again
TTITLE13=Drowning Dream
TTITLE14=Instrumental
TTITLE15=The Girlfriend's Mother Song
TTITLE16=Instrumental
TTITLE17=Bitter Lullaby
TTITLE18=Swollen
TTITLE19=Instrumental
EXTD=
EXTT0=There is a Flooded River
EXTT1=
EXTT2=
EXTT3=
EXTT4=
EXTT5=
EXTT6=
EXTT7=
EXTT8=
EXTT9=
EXTT10=
EXTT11=
EXTT12=
EXTT13=
EXTT14=
EXTT15=
EXTT16=
EXTT17=
EXTT18=
EXTT19=
PLAYORDER=
